# Blender 4.4.3
# www.blender.org
mtllib sluice_input.mtl
o Sluice
v 0.125000 0.625000 -0.187500
v 0.750000 0.625000 -0.187500
v 0.125000 0.625000 -0.812500
v 0.750000 0.625000 -0.812500
v 0.000000 0.000000 -0.062500
v 0.000000 0.062500 -0.062500
v 0.000000 0.000000 -0.937500
v 0.000000 0.062500 -0.937500
v 1.000000 0.000000 -0.062500
v 1.000000 0.062500 -0.062500
v 1.000000 0.000000 -0.937500
v 1.000000 0.062500 -0.937500
v 0.000000 0.062500 -0.062500
v 0.000000 0.312500 -0.062500
v 0.000000 0.062500 -0.125000
v 0.000000 0.312500 -0.125000
v 1.000000 0.062500 -0.062500
v 1.000000 0.312500 -0.062500
v 1.000000 0.062500 -0.125000
v 1.000000 0.312500 -0.125000
v 0.000000 0.062500 -0.875000
v 0.000000 0.312500 -0.875000
v 0.000000 0.062500 -0.937500
v 0.000000 0.312500 -0.937500
v 1.000000 0.062500 -0.875000
v 1.000000 0.312500 -0.875000
v 1.000000 0.062500 -0.937500
v 1.000000 0.312500 -0.937500
v 0.000000 0.062500 -0.125000
v 0.000000 0.562500 -0.125000
v 0.000000 0.062500 -0.875000
v 0.000000 0.562500 -0.875000
v 0.062500 0.062500 -0.125000
v 0.062500 0.562500 -0.125000
v 0.062500 0.062500 -0.875000
v 0.062500 0.562500 -0.875000
v 0.000000 0.312500 -0.062500
v 0.000000 0.562500 -0.062500
v 0.000000 0.312500 -0.125000
v 0.000000 0.562500 -0.125000
v 0.875000 0.312500 -0.062500
v 0.875000 0.562500 -0.062500
v 0.875000 0.312500 -0.125000
v 0.875000 0.562500 -0.125000
v 0.000000 0.312500 -0.875000
v 0.000000 0.562500 -0.875000
v 0.000000 0.312500 -0.937500
v 0.000000 0.562500 -0.937500
v 0.875000 0.312500 -0.875000
v 0.875000 0.562500 -0.875000
v 0.875000 0.312500 -0.937500
v 0.875000 0.562500 -0.937500
v 0.125000 0.062500 -0.812500
v 0.125000 0.187500 -0.812500
v 0.125000 0.062500 -0.875000
v 0.125000 0.187500 -0.875000
v 1.000000 0.062500 -0.812500
v 1.000000 0.187500 -0.812500
v 1.000000 0.187500 -0.875000
v 0.125000 0.062500 -0.125000
v 0.125000 0.187500 -0.125000
v 0.125000 0.062500 -0.187500
v 0.125000 0.187500 -0.187500
v 1.000000 0.187500 -0.125000
v 1.000000 0.062500 -0.187500
v 1.000000 0.187500 -0.187500
v 0.062500 0.062500 -0.125000
v 0.062500 0.187500 -0.125000
v 0.062500 0.062500 -0.875000
v 0.062500 0.187500 -0.875000
v 0.125000 0.062500 -0.125000
v 0.125000 0.187500 -0.125000
v 0.125000 0.062500 -0.875000
v 0.125000 0.187500 -0.875000
v 0.223247 0.226540 -0.125000
v 0.199329 0.284283 -0.125000
v 0.223247 0.226540 -0.875000
v 0.199329 0.284283 -0.875000
v 0.800671 0.465717 -0.125000
v 0.776753 0.523460 -0.125000
v 0.800671 0.465717 -0.875000
v 0.776753 0.523460 -0.875000
v 0.125000 0.562500 -0.812500
v 0.125000 0.687500 -0.812500
v 0.125000 0.562500 -0.875000
v 0.125000 0.687500 -0.875000
v 0.750000 0.562500 -0.812500
v 0.750000 0.687500 -0.812500
v 0.750000 0.562500 -0.875000
v 0.750000 0.687500 -0.875000
v 0.125000 0.562500 -0.125000
v 0.125000 0.687500 -0.125000
v 0.125000 0.562500 -0.187500
v 0.125000 0.687500 -0.187500
v 0.750000 0.562500 -0.125000
v 0.750000 0.687500 -0.125000
v 0.750000 0.562500 -0.187500
v 0.750000 0.687500 -0.187500
v 0.062500 0.562500 -0.125000
v 0.062500 0.687500 -0.125000
v 0.062500 0.562500 -0.875000
v 0.062500 0.687500 -0.875000
v 0.125000 0.562500 -0.125000
v 0.125000 0.687500 -0.125000
v 0.125000 0.562500 -0.875000
v 0.125000 0.687500 -0.875000
v 0.750000 0.562500 -0.125000
v 0.750000 0.687500 -0.125000
v 0.750000 0.562500 -0.875000
v 0.750000 0.687500 -0.875000
v 0.812500 0.562500 -0.125000
v 0.812500 0.687500 -0.125000
v 0.812500 0.562500 -0.875000
v 0.812500 0.687500 -0.875000
v 0.812500 0.562500 -0.187500
v 0.812500 0.625000 -0.187500
v 0.812500 0.562500 -0.812500
v 0.812500 0.625000 -0.812500
v 0.875000 0.562500 -0.187500
v 0.875000 0.625000 -0.187500
v 0.875000 0.562500 -0.812500
v 0.875000 0.625000 -0.812500
v 0.750000 0.437500 -0.125000
v 0.750000 0.562500 -0.125000
v 0.750000 0.437500 -0.875000
v 0.750000 0.562500 -0.875000
v 0.875000 0.437500 -0.125000
v 0.875000 0.562500 -0.125000
v 0.875000 0.437500 -0.875000
v 0.875000 0.562500 -0.875000
v 0.281250 0.437500 -0.125000
v 0.281250 0.562500 -0.125000
v 0.281250 0.437500 -0.875000
v 0.281250 0.562500 -0.875000
v 0.406250 0.437500 -0.125000
v 0.406250 0.562500 -0.125000
v 0.406250 0.437500 -0.875000
v 0.406250 0.562500 -0.875000
vn -0.0000 1.0000 -0.0000
vn -1.0000 -0.0000 -0.0000
vn -0.0000 -0.0000 -1.0000
vn -0.0000 -0.0000 1.0000
vn -0.0000 -1.0000 -0.0000
vn 1.0000 -0.0000 -0.0000
vn -0.9239 -0.3827 -0.0000
vn 0.3827 -0.9239 -0.0000
vn -0.3827 0.9239 -0.0000
vt 0.041667 0.041667
vt 0.291667 0.041667
vt 0.291667 0.291667
vt 0.041667 0.291667
vt 0.354167 0.979167
vt 0.354167 1.000000
vt 0.645833 1.000000
vt 0.645833 0.979167
vt 0.291667 0.666667
vt 0.312500 0.666667
vt 0.312500 1.000000
vt 0.291667 1.000000
vt 0.020833 0.666667
vt 0.041667 0.666667
vt 0.041667 1.000000
vt 0.020833 1.000000
vt 0.354167 0.666667
vt 0.645833 0.666667
vt 0.645833 0.125000
vt 0.645833 0.208333
vt 0.625000 0.208333
vt 0.625000 0.125000
vt 0.312500 0.208333
vt 0.312500 0.125000
vt 0.687500 0.125000
vt 0.687500 0.208333
vt 0.354167 0.208333
vt 0.354167 0.125000
vt 0.354167 0.270833
vt 0.687500 0.270833
vt 0.687500 0.291667
vt 0.354167 0.291667
vt 0.375000 0.125000
vt 0.375000 0.208333
vt 0.645833 0.270833
vt 0.312500 0.270833
vt 0.312500 0.291667
vt 0.645833 0.291667
vt 0.625000 0.291667
vt 0.375000 0.291667
vt 0.375000 0.250000
vt 0.625000 0.250000
vt 0.625000 0.500000
vt 0.375000 0.500000
vt 0.375000 0.750000
vt 0.625000 0.750000
vt 0.625000 1.000000
vt 0.375000 1.000000
vt 0.125000 0.500000
vt 0.125000 0.750000
vt 0.375000 0.270833
vt 0.625000 0.270833
vt 0.375000 0.000000
vt 0.625000 0.000000
vt 0.583333 0.666667
vt 0.625000 0.666667
vt 0.625000 0.958333
vt 0.583333 0.958333
vt 0.604167 0.666667
vt 0.604167 0.958333
vt 0.416667 0.958333
vt 0.375000 0.958333
vt 0.375000 0.666667
vt 0.416667 0.666667
vt 0.395833 0.666667
vt 0.395833 0.958333
vt 0.625000 0.937500
vt 0.625000 0.979167
vt 0.375000 0.979167
vt 0.375000 0.937500
vt 0.708333 0.729167
vt 0.708333 0.750000
vt 0.958333 0.750000
vt 0.958333 0.729167
vt 0.958333 0.937500
vt 0.708333 0.937500
vt 0.937500 0.958333
vt 0.937500 1.000000
vt 0.729167 1.000000
vt 0.729167 0.958333
vt 0.937500 0.979167
vt 0.729167 0.979167
vt 0.958333 0.958333
vt 0.958333 1.000000
vt 0.708333 1.000000
vt 0.708333 0.958333
vt 0.958333 0.979167
vt 0.708333 0.979167
vt 0.395833 0.520833
vt 0.395833 0.500000
vt 0.604167 0.500000
vt 0.604167 0.520833
vt 0.583333 0.583333
vt 0.604167 0.583333
vt 0.604167 0.604167
vt 0.583333 0.604167
vt 0.395833 0.583333
vt 0.416667 0.583333
vt 0.416667 0.604167
vt 0.395833 0.604167
vt 0.937500 0.708333
vt 0.937500 0.666667
vt 0.687500 0.666667
vt 0.687500 0.708333
s 0
usemtl sluice
f 1/1/1 2/2/1 4/3/1 3/4/1
f 5/5/2 6/6/2 8/7/2 7/8/2
f 7/9/3 8/10/3 12/11/3 11/12/3
f 9/13/4 10/14/4 6/15/4 5/16/4
f 7/11/5 11/10/5 9/13/5 5/16/5
f 12/17/1 8/6/1 6/7/1 10/18/1
f 13/19/2 14/20/2 16/21/2 15/22/2
f 15/19/3 16/20/3 20/23/3 19/24/3
f 17/25/4 18/26/4 14/27/4 13/28/4
f 20/29/1 16/30/1 14/31/1 18/32/1
f 21/33/2 22/34/2 24/27/2 23/28/2
f 23/19/3 24/20/3 28/23/3 27/24/3
f 25/25/4 26/26/4 22/27/4 21/28/4
f 28/35/1 24/36/1 22/37/1 26/38/1
f 29/22/2 30/39/2 32/40/2 31/33/2
f 31/41/3 32/42/3 36/43/3 35/44/3
f 35/22/6 36/39/6 34/40/6 33/33/6
f 33/45/4 34/46/4 30/47/4 29/48/4
f 31/49/5 35/44/5 33/45/5 29/50/5
f 36/51/1 32/40/1 30/39/1 34/52/1
f 37/20/2 38/38/2 40/39/2 39/21/2
f 39/20/3 40/38/3 44/32/3 43/27/3
f 43/34/6 44/40/6 42/32/6 41/27/6
f 41/20/4 42/38/4 38/32/4 37/27/4
f 44/35/1 40/29/1 38/32/1 42/38/1
f 45/34/2 46/40/2 48/32/2 47/27/2
f 47/20/3 48/38/3 52/32/3 51/27/3
f 51/20/6 52/38/6 50/39/6 49/21/6
f 49/20/4 50/38/4 46/32/4 45/27/4
f 52/29/1 48/35/1 46/38/1 50/32/1
f 53/53/2 54/54/2 56/42/2 55/41/2
f 57/55/4 58/56/4 54/57/4 53/58/4
f 59/59/1 56/60/1 54/57/1 58/56/1
f 60/53/2 61/54/2 63/42/2 62/41/2
f 62/61/3 63/62/3 66/63/3 65/64/3
f 66/65/1 63/66/1 61/62/1 64/63/1
f 67/53/2 68/54/2 70/42/2 69/41/2
f 69/41/3 70/42/3 74/43/3 73/44/3
f 73/67/6 74/68/6 72/69/6 71/70/6
f 71/45/4 72/46/4 68/47/4 67/48/4
f 69/49/5 73/44/5 71/45/5 67/50/5
f 74/68/1 70/57/1 68/62/1 72/69/1
f 75/71/7 76/72/7 78/73/7 77/74/7
f 77/75/8 81/74/8 79/71/8 75/76/8
f 82/74/9 78/75/9 76/76/9 80/71/9
f 83/53/2 84/54/2 86/42/2 85/41/2
f 85/77/3 86/78/3 90/79/3 89/80/3
f 89/44/6 90/43/6 88/46/6 87/45/6
f 87/80/4 88/79/4 84/78/4 83/77/4
f 85/81/5 89/82/5 87/80/5 83/77/5
f 90/82/1 86/81/1 84/78/1 88/79/1
f 91/53/2 92/54/2 94/42/2 93/41/2
f 93/80/3 94/79/3 98/78/3 97/77/3
f 97/44/6 98/43/6 96/46/6 95/45/6
f 95/77/4 96/78/4 92/79/4 91/80/4
f 93/80/5 97/77/5 95/81/5 91/82/5
f 98/81/1 94/82/1 92/79/1 96/78/1
f 99/83/2 100/84/2 102/85/2 101/86/2
f 101/83/3 102/84/3 106/78/3 105/77/3
f 105/86/6 106/85/6 104/84/6 103/83/6
f 103/86/4 104/85/4 100/79/4 99/80/4
f 101/83/5 105/87/5 103/88/5 99/86/5
f 106/85/1 102/88/1 100/87/1 104/84/1
f 107/83/2 108/84/2 110/85/2 109/86/2
f 109/80/3 110/79/3 114/85/3 113/86/3
f 113/86/6 114/85/6 112/84/6 111/83/6
f 111/83/4 112/84/4 108/78/4 107/77/4
f 114/85/1 110/88/1 108/87/1 112/84/1
f 115/89/2 116/90/2 118/91/2 117/92/2
f 117/93/3 118/94/3 122/95/3 121/96/3
f 121/89/6 122/90/6 120/91/6 119/92/6
f 119/97/4 120/98/4 116/99/4 115/100/4
f 122/90/1 118/89/1 116/92/1 120/91/1
f 123/101/2 124/102/2 126/103/2 125/104/2
f 129/103/6 130/104/6 128/101/6 127/102/6
f 125/104/5 129/103/5 127/102/5 123/101/5
f 130/104/1 126/103/1 124/102/1 128/101/1
f 131/101/2 132/102/2 134/103/2 133/104/2
f 137/103/6 138/104/6 136/101/6 135/102/6
f 133/104/5 137/103/5 135/102/5 131/101/5
f 138/104/1 134/103/1 132/102/1 136/101/1
o Sediment
v 0.125000 0.625000 -0.187500
v 0.125000 0.812500 -0.187500
v 0.125000 0.625000 -0.812500
v 0.125000 0.812500 -0.812500
v 0.750000 0.625000 -0.187500
v 0.750000 0.812500 -0.187500
v 0.750000 0.625000 -0.812500
v 0.750000 0.812500 -0.812500
v 0.125000 0.125000 -0.187500
v 0.125000 0.125000 -0.812500
v 1.000000 0.125000 -0.187500
v 1.000000 0.125000 -0.812500
vn -1.0000 -0.0000 -0.0000
vn -0.0000 -0.0000 -1.0000
vn 1.0000 -0.0000 -0.0000
vn -0.0000 -0.0000 1.0000
vn -0.0000 -1.0000 -0.0000
vn -0.0000 1.0000 -0.0000
vt 0.812500 0.812500
vt 0.812500 0.625000
vt 0.187500 0.625000
vt 0.187500 0.812500
vt 0.187500 0.187500
vt 0.812500 0.187500
vt 0.708333 0.354167
vt 0.708333 0.645833
vt 0.958333 0.645833
vt 0.958333 0.354167
s 0
usemtl gravel
f 139/105/10 140/106/10 142/107/10 141/108/10
f 141/108/11 142/107/11 146/106/11 145/105/11
f 145/105/12 146/106/12 144/107/12 143/108/12
f 143/108/13 144/107/13 140/106/13 139/105/13
f 141/109/14 145/110/14 143/105/14 139/108/14
f 146/109/15 142/110/15 140/105/15 144/108/15
usemtl sluice
f 150/111/15 148/112/15 147/113/15 149/114/15
