# Blender 4.4.3
# www.blender.org
mtllib sluice.mtl
o Sluice
v 0.125000 0.625000 -0.187500
v 0.750000 0.625000 -0.187500
v 0.125000 0.625000 -0.812500
v 0.750000 0.625000 -0.812500
v 0.000000 0.000000 -0.062500
v 0.000000 0.062500 -0.062500
v 0.000000 0.000000 -0.937500
v 0.000000 0.062500 -0.937500
v 1.000000 0.000000 -0.062500
v 1.000000 0.062500 -0.062500
v 1.000000 0.000000 -0.937500
v 1.000000 0.062500 -0.937500
v 0.000000 0.062500 -0.062500
v 0.000000 0.312500 -0.062500
v 0.000000 0.062500 -0.125000
v 0.000000 0.312500 -0.125000
v 1.000000 0.062500 -0.062500
v 1.000000 0.312500 -0.062500
v 1.000000 0.062500 -0.125000
v 1.000000 0.312500 -0.125000
v 0.000000 0.062500 -0.875000
v 0.000000 0.312500 -0.875000
v 0.000000 0.062500 -0.937500
v 0.000000 0.312500 -0.937500
v 1.000000 0.062500 -0.875000
v 1.000000 0.312500 -0.875000
v 1.000000 0.062500 -0.937500
v 1.000000 0.312500 -0.937500
v 1.000000 0.062500 -0.062500
v 1.000000 0.312500 -0.062500
v 1.000000 0.062500 -0.125000
v 1.000000 0.312500 -0.125000
v 2.000000 0.062500 -0.062500
v 1.750000 0.312500 -0.062500
v 2.000000 0.062500 -0.125000
v 1.750000 0.312500 -0.125000
v 1.000000 0.062500 -0.875000
v 1.000000 0.312500 -0.875000
v 1.000000 0.062500 -0.937500
v 1.000000 0.312500 -0.937500
v 2.000000 0.062500 -0.875000
v 1.750000 0.312500 -0.875000
v 2.000000 0.062500 -0.937500
v 1.750000 0.312500 -0.937500
v 0.000000 0.062500 -0.125000
v 0.000000 0.562500 -0.125000
v 0.000000 0.062500 -0.875000
v 0.000000 0.562500 -0.875000
v 0.062500 0.062500 -0.125000
v 0.062500 0.562500 -0.125000
v 0.062500 0.062500 -0.875000
v 0.062500 0.562500 -0.875000
v 0.000000 0.312500 -0.062500
v 0.000000 0.562500 -0.062500
v 0.000000 0.312500 -0.125000
v 0.000000 0.562500 -0.125000
v 0.875000 0.312500 -0.062500
v 0.875000 0.562500 -0.062500
v 0.875000 0.312500 -0.125000
v 0.875000 0.562500 -0.125000
v 0.000000 0.312500 -0.875000
v 0.000000 0.562500 -0.875000
v 0.000000 0.312500 -0.937500
v 0.000000 0.562500 -0.937500
v 0.875000 0.312500 -0.875000
v 0.875000 0.562500 -0.875000
v 0.875000 0.312500 -0.937500
v 0.875000 0.562500 -0.937500
v 0.125000 0.062500 -0.812500
v 0.125000 0.187500 -0.812500
v 0.125000 0.062500 -0.875000
v 0.125000 0.187500 -0.875000
v 1.000000 0.062500 -0.812500
v 1.000000 0.187500 -0.812500
v 1.000000 0.187500 -0.875000
v 1.000000 0.062500 -0.812500
v 1.000000 0.187500 -0.812500
v 1.000000 0.062500 -0.875000
v 1.000000 0.187500 -0.875000
v 2.000000 0.062500 -0.812500
v 2.000000 0.187500 -0.812500
v 2.000000 0.062500 -0.875000
v 2.000000 0.187500 -0.875000
v 0.125000 0.062500 -0.125000
v 0.125000 0.187500 -0.125000
v 0.125000 0.062500 -0.187500
v 0.125000 0.187500 -0.187500
v 1.000000 0.187500 -0.125000
v 1.000000 0.062500 -0.187500
v 1.000000 0.187500 -0.187500
v 1.000000 0.062500 -0.125000
v 1.000000 0.187500 -0.125000
v 1.000000 0.062500 -0.187500
v 1.000000 0.187500 -0.187500
v 2.000000 0.062500 -0.125000
v 2.000000 0.187500 -0.125000
v 2.000000 0.062500 -0.187500
v 2.000000 0.187500 -0.187500
v 0.062500 0.062500 -0.125000
v 0.062500 0.187500 -0.125000
v 0.062500 0.062500 -0.875000
v 0.062500 0.187500 -0.875000
v 0.125000 0.062500 -0.125000
v 0.125000 0.187500 -0.125000
v 0.125000 0.062500 -0.875000
v 0.125000 0.187500 -0.875000
v 1.531250 0.187500 -0.125000
v 1.531250 0.312500 -0.125000
v 1.531250 0.187500 -0.875000
v 1.531250 0.312500 -0.875000
v 1.656250 0.187500 -0.125000
v 1.656250 0.312500 -0.125000
v 1.656250 0.187500 -0.875000
v 1.656250 0.312500 -0.875000
v 0.223247 0.226540 -0.125000
v 0.199329 0.284283 -0.125000
v 0.223247 0.226540 -0.875000
v 0.199329 0.284283 -0.875000
v 0.800671 0.465717 -0.125000
v 0.776753 0.523460 -0.125000
v 0.800671 0.465717 -0.875000
v 0.776753 0.523460 -0.875000
v 0.125000 0.562500 -0.812500
v 0.125000 0.687500 -0.812500
v 0.125000 0.562500 -0.875000
v 0.125000 0.687500 -0.875000
v 0.750000 0.562500 -0.812500
v 0.750000 0.687500 -0.812500
v 0.750000 0.562500 -0.875000
v 0.750000 0.687500 -0.875000
v 0.125000 0.562500 -0.125000
v 0.125000 0.687500 -0.125000
v 0.125000 0.562500 -0.187500
v 0.125000 0.687500 -0.187500
v 0.750000 0.562500 -0.125000
v 0.750000 0.687500 -0.125000
v 0.750000 0.562500 -0.187500
v 0.750000 0.687500 -0.187500
v 0.062500 0.562500 -0.125000
v 0.062500 0.687500 -0.125000
v 0.062500 0.562500 -0.875000
v 0.062500 0.687500 -0.875000
v 0.125000 0.562500 -0.125000
v 0.125000 0.687500 -0.125000
v 0.125000 0.562500 -0.875000
v 0.125000 0.687500 -0.875000
v 0.750000 0.562500 -0.125000
v 0.750000 0.687500 -0.125000
v 0.750000 0.562500 -0.875000
v 0.750000 0.687500 -0.875000
v 0.812500 0.562500 -0.125000
v 0.812500 0.687500 -0.125000
v 0.812500 0.562500 -0.875000
v 0.812500 0.687500 -0.875000
v 0.812500 0.562500 -0.187500
v 0.812500 0.625000 -0.187500
v 0.812500 0.562500 -0.812500
v 0.812500 0.625000 -0.812500
v 0.875000 0.562500 -0.187500
v 0.875000 0.625000 -0.187500
v 0.875000 0.562500 -0.812500
v 0.875000 0.625000 -0.812500
v 1.062500 0.187500 -0.125000
v 1.062500 0.312500 -0.125000
v 1.062500 0.187500 -0.875000
v 1.062500 0.312500 -0.875000
v 1.187500 0.187500 -0.125000
v 1.187500 0.312500 -0.125000
v 1.187500 0.187500 -0.875000
v 1.187500 0.312500 -0.875000
v 0.750000 0.437500 -0.125000
v 0.750000 0.562500 -0.125000
v 0.750000 0.437500 -0.875000
v 0.750000 0.562500 -0.875000
v 0.875000 0.437500 -0.125000
v 0.875000 0.562500 -0.125000
v 0.875000 0.437500 -0.875000
v 0.875000 0.562500 -0.875000
v 0.281250 0.437500 -0.125000
v 0.281250 0.562500 -0.125000
v 0.281250 0.437500 -0.875000
v 0.281250 0.562500 -0.875000
v 0.406250 0.437500 -0.125000
v 0.406250 0.562500 -0.125000
v 0.406250 0.437500 -0.875000
v 0.406250 0.562500 -0.875000
v 1.000000 0.000000 -0.062500
v 1.000000 0.062500 -0.062500
v 1.000000 0.000000 -0.937500
v 1.000000 0.062500 -0.937500
v 2.000000 0.000000 -0.062500
v 2.000000 0.062500 -0.062500
v 2.000000 0.000000 -0.937500
v 2.000000 0.062500 -0.937500
vn -0.0000 1.0000 -0.0000
vn -1.0000 -0.0000 -0.0000
vn -0.0000 -0.0000 -1.0000
vn -0.0000 -0.0000 1.0000
vn -0.0000 -1.0000 -0.0000
vn 0.7071 0.7071 -0.0000
vn 1.0000 -0.0000 -0.0000
vn -0.9239 -0.3827 -0.0000
vn 0.3827 -0.9239 -0.0000
vn -0.3827 0.9239 -0.0000
vt 0.041667 0.041667
vt 0.291667 0.041667
vt 0.291667 0.291667
vt 0.041667 0.291667
vt 0.354167 0.979167
vt 0.354167 1.000000
vt 0.645833 1.000000
vt 0.645833 0.979167
vt 0.291667 0.666667
vt 0.312500 0.666667
vt 0.312500 1.000000
vt 0.291667 1.000000
vt 0.020833 0.666667
vt 0.041667 0.666667
vt 0.041667 1.000000
vt 0.020833 1.000000
vt 0.354167 0.666667
vt 0.645833 0.666667
vt 0.645833 0.125000
vt 0.645833 0.208333
vt 0.625000 0.208333
vt 0.625000 0.125000
vt 0.312500 0.208333
vt 0.312500 0.125000
vt 0.687500 0.125000
vt 0.687500 0.208333
vt 0.354167 0.208333
vt 0.354167 0.125000
vt 0.354167 0.270833
vt 0.687500 0.270833
vt 0.687500 0.291667
vt 0.354167 0.291667
vt 0.375000 0.125000
vt 0.375000 0.208333
vt 0.645833 0.270833
vt 0.312500 0.270833
vt 0.312500 0.291667
vt 0.645833 0.291667
vt 0.354167 0.020833
vt 0.354167 0.104167
vt 0.604167 0.104167
vt 0.687500 0.020833
vt 0.625000 0.083333
vt 0.625000 0.104167
vt 0.541667 0.104167
vt 0.541667 0.083333
vt 0.354167 0.083333
vt 0.604167 0.083333
vt 0.125000 0.500000
vt 0.375000 0.500000
vt 0.375000 0.750000
vt 0.125000 0.750000
vt 0.625000 0.291667
vt 0.375000 0.291667
vt 0.375000 0.250000
vt 0.625000 0.250000
vt 0.625000 0.500000
vt 0.625000 0.750000
vt 0.625000 1.000000
vt 0.375000 1.000000
vt 0.375000 0.270833
vt 0.625000 0.270833
vt 0.375000 0.000000
vt 0.625000 0.000000
vt 0.583333 0.666667
vt 0.625000 0.666667
vt 0.625000 0.958333
vt 0.583333 0.958333
vt 0.604167 0.666667
vt 0.604167 0.958333
vt 0.625000 0.333333
vt 0.583333 0.333333
vt 0.625000 0.375000
vt 0.604167 0.333333
vt 0.604167 0.375000
vt 0.416667 0.958333
vt 0.375000 0.958333
vt 0.375000 0.666667
vt 0.416667 0.666667
vt 0.395833 0.666667
vt 0.395833 0.958333
vt 0.375000 0.333333
vt 0.416667 0.333333
vt 0.395833 0.375000
vt 0.395833 0.333333
vt 0.375000 0.375000
vt 0.625000 0.937500
vt 0.625000 0.979167
vt 0.375000 0.979167
vt 0.375000 0.937500
vt 0.937500 0.708333
vt 0.937500 0.666667
vt 0.687500 0.666667
vt 0.687500 0.708333
vt 0.708333 0.729167
vt 0.708333 0.750000
vt 0.958333 0.750000
vt 0.958333 0.729167
vt 0.958333 0.937500
vt 0.708333 0.937500
vt 0.937500 0.958333
vt 0.937500 1.000000
vt 0.729167 1.000000
vt 0.729167 0.958333
vt 0.937500 0.979167
vt 0.729167 0.979167
vt 0.958333 0.958333
vt 0.958333 1.000000
vt 0.708333 1.000000
vt 0.708333 0.958333
vt 0.958333 0.979167
vt 0.708333 0.979167
vt 0.395833 0.520833
vt 0.395833 0.500000
vt 0.604167 0.500000
vt 0.604167 0.520833
vt 0.583333 0.583333
vt 0.604167 0.583333
vt 0.604167 0.604167
vt 0.583333 0.604167
vt 0.395833 0.583333
vt 0.416667 0.583333
vt 0.416667 0.604167
vt 0.395833 0.604167
vt 0.291667 0.333333
vt 0.312500 0.333333
vt 0.354167 0.354167
vt 0.354167 0.333333
vt 0.645833 0.333333
vt 0.645833 0.354167
vt 0.020833 0.333333
vt 0.041667 0.333333
s 0
usemtl sluice
f 1/1/1 2/2/1 4/3/1 3/4/1
f 5/5/2 6/6/2 8/7/2 7/8/2
f 7/9/3 8/10/3 12/11/3 11/12/3
f 9/13/4 10/14/4 6/15/4 5/16/4
f 7/11/5 11/10/5 9/13/5 5/16/5
f 12/17/1 8/6/1 6/7/1 10/18/1
f 13/19/2 14/20/2 16/21/2 15/22/2
f 15/19/3 16/20/3 20/23/3 19/24/3
f 17/25/4 18/26/4 14/27/4 13/28/4
f 20/29/1 16/30/1 14/31/1 18/32/1
f 21/33/2 22/34/2 24/27/2 23/28/2
f 23/19/3 24/20/3 28/23/3 27/24/3
f 25/25/4 26/26/4 22/27/4 21/28/4
f 28/35/1 24/36/1 22/37/1 26/38/1
f 31/39/3 32/40/3 36/41/3 35/42/3
f 35/43/6 36/44/6 34/45/6 33/46/6
f 33/42/4 34/41/4 30/40/4 29/39/4
f 36/41/1 32/40/1 30/47/1 34/48/1
f 39/39/3 40/40/3 44/41/3 43/42/3
f 43/44/6 44/45/6 42/46/6 41/43/6
f 41/42/4 42/41/4 38/40/4 37/39/4
f 39/49/5 43/50/5 41/51/5 37/52/5
f 44/47/1 40/48/1 38/41/1 42/40/1
f 45/22/2 46/53/2 48/54/2 47/33/2
f 47/55/3 48/56/3 52/57/3 51/50/3
f 51/22/7 52/53/7 50/54/7 49/33/7
f 49/51/4 50/58/4 46/59/4 45/60/4
f 47/49/5 51/50/5 49/51/5 45/52/5
f 52/61/1 48/54/1 46/53/1 50/62/1
f 53/20/2 54/38/2 56/53/2 55/21/2
f 55/20/3 56/38/3 60/32/3 59/27/3
f 59/34/7 60/54/7 58/32/7 57/27/7
f 57/20/4 58/38/4 54/32/4 53/27/4
f 60/35/1 56/29/1 54/32/1 58/38/1
f 61/34/2 62/54/2 64/32/2 63/27/2
f 63/20/3 64/38/3 68/32/3 67/27/3
f 67/20/7 68/38/7 66/53/7 65/21/7
f 65/20/4 66/38/4 62/32/4 61/27/4
f 68/29/1 64/35/1 62/38/1 66/32/1
f 69/63/2 70/64/2 72/56/2 71/55/2
f 73/65/4 74/66/4 70/67/4 69/68/4
f 75/69/1 72/70/1 70/67/1 74/66/1
f 78/65/3 79/66/3 83/71/3 82/72/3
f 82/73/7 83/71/7 81/74/7 80/75/7
f 80/72/4 81/71/4 77/66/4 76/65/4
f 83/71/1 79/66/1 77/69/1 81/74/1
f 84/63/2 85/64/2 87/56/2 86/55/2
f 86/76/3 87/77/3 90/78/3 89/79/3
f 90/80/1 87/81/1 85/77/1 88/78/1
f 93/79/3 94/78/3 98/82/3 97/83/3
f 97/84/7 98/85/7 96/82/7 95/86/7
f 95/83/4 96/82/4 92/78/4 91/79/4
f 98/78/1 94/82/1 92/85/1 96/80/1
f 99/63/2 100/64/2 102/56/2 101/55/2
f 101/55/3 102/56/3 106/57/3 105/50/3
f 105/87/7 106/88/7 104/89/7 103/90/7
f 103/51/4 104/58/4 100/59/4 99/60/4
f 101/49/5 105/50/5 103/51/5 99/52/5
f 106/88/1 102/67/1 100/77/1 104/89/1
f 107/91/2 108/92/2 110/93/2 109/94/2
f 113/93/7 114/94/7 112/91/7 111/92/7
f 109/94/5 113/93/5 111/92/5 107/91/5
f 114/94/1 110/93/1 108/92/1 112/91/1
f 115/95/8 116/96/8 118/97/8 117/98/8
f 117/99/9 121/98/9 119/95/9 115/100/9
f 122/98/10 118/99/10 116/100/10 120/95/10
f 123/63/2 124/64/2 126/56/2 125/55/2
f 125/101/3 126/102/3 130/103/3 129/104/3
f 129/50/7 130/57/7 128/58/7 127/51/7
f 127/104/4 128/103/4 124/102/4 123/101/4
f 125/105/5 129/106/5 127/104/5 123/101/5
f 130/106/1 126/105/1 124/102/1 128/103/1
f 131/63/2 132/64/2 134/56/2 133/55/2
f 133/104/3 134/103/3 138/102/3 137/101/3
f 137/50/7 138/57/7 136/58/7 135/51/7
f 135/101/4 136/102/4 132/103/4 131/104/4
f 133/104/5 137/101/5 135/105/5 131/106/5
f 138/105/1 134/106/1 132/103/1 136/102/1
f 139/107/2 140/108/2 142/109/2 141/110/2
f 141/107/3 142/108/3 146/102/3 145/101/3
f 145/110/7 146/109/7 144/108/7 143/107/7
f 143/110/4 144/109/4 140/103/4 139/104/4
f 141/107/5 145/111/5 143/112/5 139/110/5
f 146/109/1 142/112/1 140/111/1 144/108/1
f 147/107/2 148/108/2 150/109/2 149/110/2
f 149/104/3 150/103/3 154/109/3 153/110/3
f 153/110/7 154/109/7 152/108/7 151/107/7
f 151/107/4 152/108/4 148/102/4 147/101/4
f 154/109/1 150/112/1 148/111/1 152/108/1
f 155/113/2 156/114/2 158/115/2 157/116/2
f 157/117/3 158/118/3 162/119/3 161/120/3
f 161/113/7 162/114/7 160/115/7 159/116/7
f 159/121/4 160/122/4 156/123/4 155/124/4
f 162/114/1 158/113/1 156/116/1 160/115/1
f 163/91/2 164/92/2 166/93/2 165/94/2
f 169/93/7 170/94/7 168/91/7 167/92/7
f 165/94/5 169/93/5 167/92/5 163/91/5
f 170/94/1 166/93/1 164/92/1 168/91/1
f 171/91/2 172/92/2 174/93/2 173/94/2
f 177/93/7 178/94/7 176/91/7 175/92/7
f 173/94/5 177/93/5 175/92/5 171/91/5
f 178/94/1 174/93/1 172/92/1 176/91/1
f 179/91/2 180/92/2 182/93/2 181/94/2
f 185/93/7 186/94/7 184/91/7 183/92/7
f 181/94/5 185/93/5 183/92/5 179/91/5
f 186/94/1 182/93/1 180/92/1 184/91/1
f 189/125/3 190/126/3 194/10/3 193/9/3
f 193/127/7 194/128/7 192/129/7 191/130/7
f 191/131/4 192/132/4 188/14/4 187/13/4
f 189/10/5 193/126/5 191/131/5 187/13/5
f 194/128/1 190/17/1 188/18/1 192/129/1
o Sediment
v 0.125000 0.625000 -0.187500
v 0.125000 0.812500 -0.187500
v 0.125000 0.625000 -0.812500
v 0.125000 0.812500 -0.812500
v 0.750000 0.625000 -0.187500
v 0.750000 0.812500 -0.187500
v 0.750000 0.625000 -0.812500
v 0.750000 0.812500 -0.812500
v 0.125000 0.125000 -0.187500
v 0.125000 0.125000 -0.812500
v 1.000000 0.125000 -0.187500
v 1.000000 0.125000 -0.812500
v 1.000000 0.125000 -0.187500
v 1.000000 0.125000 -0.812500
v 2.000000 0.062500 -0.187500
v 2.000000 0.125000 -0.187500
v 2.000000 0.062500 -0.812500
v 2.000000 0.125000 -0.812500
vn -1.0000 -0.0000 -0.0000
vn -0.0000 -0.0000 -1.0000
vn 1.0000 -0.0000 -0.0000
vn -0.0000 -0.0000 1.0000
vn -0.0000 -1.0000 -0.0000
vn -0.0000 1.0000 -0.0000
vt 0.812500 0.812500
vt 0.812500 0.625000
vt 0.187500 0.625000
vt 0.187500 0.812500
vt 0.187500 0.187500
vt 0.812500 0.187500
vt 0.708333 0.354167
vt 0.708333 0.645833
vt 0.958333 0.645833
vt 0.958333 0.354167
vt 0.708333 0.041667
vt 0.708333 0.020833
vt 0.958333 0.020833
vt 0.958333 0.041667
s 0
usemtl gravel
f 195/133/11 196/134/11 198/135/11 197/136/11
f 197/136/12 198/135/12 202/134/12 201/133/12
f 201/133/13 202/134/13 200/135/13 199/136/13
f 199/136/14 200/135/14 196/134/14 195/133/14
f 197/137/15 201/138/15 199/133/15 195/136/15
f 202/137/16 198/138/16 196/133/16 200/136/16
usemtl sluice
f 206/139/16 204/140/16 203/141/16 205/142/16
f 211/143/13 212/144/13 210/145/13 209/146/13
f 212/144/16 208/139/16 207/142/16 210/145/16
