# Blender 4.4.3
# www.blender.org
mtllib sluice_output.mtl
o Sluice
v 1.000000 0.062500 -0.062500
v 1.000000 0.312500 -0.062500
v 1.000000 0.062500 -0.125000
v 1.000000 0.312500 -0.125000
v 2.000000 0.062500 -0.062500
v 1.750000 0.312500 -0.062500
v 2.000000 0.062500 -0.125000
v 1.750000 0.312500 -0.125000
v 1.000000 0.062500 -0.875000
v 1.000000 0.312500 -0.875000
v 1.000000 0.062500 -0.937500
v 1.000000 0.312500 -0.937500
v 2.000000 0.062500 -0.875000
v 1.750000 0.312500 -0.875000
v 2.000000 0.062500 -0.937500
v 1.750000 0.312500 -0.937500
v 1.000000 0.062500 -0.812500
v 1.000000 0.187500 -0.812500
v 1.000000 0.062500 -0.875000
v 1.000000 0.187500 -0.875000
v 2.000000 0.062500 -0.812500
v 2.000000 0.187500 -0.812500
v 2.000000 0.062500 -0.875000
v 2.000000 0.187500 -0.875000
v 1.000000 0.062500 -0.125000
v 1.000000 0.187500 -0.125000
v 1.000000 0.062500 -0.187500
v 1.000000 0.187500 -0.187500
v 2.000000 0.062500 -0.125000
v 2.000000 0.187500 -0.125000
v 2.000000 0.062500 -0.187500
v 2.000000 0.187500 -0.187500
v 1.531250 0.187500 -0.125000
v 1.531250 0.312500 -0.125000
v 1.531250 0.187500 -0.875000
v 1.531250 0.312500 -0.875000
v 1.656250 0.187500 -0.125000
v 1.656250 0.312500 -0.125000
v 1.656250 0.187500 -0.875000
v 1.656250 0.312500 -0.875000
v 1.062500 0.187500 -0.125000
v 1.062500 0.312500 -0.125000
v 1.062500 0.187500 -0.875000
v 1.062500 0.312500 -0.875000
v 1.187500 0.187500 -0.125000
v 1.187500 0.312500 -0.125000
v 1.187500 0.187500 -0.875000
v 1.187500 0.312500 -0.875000
v 1.000000 0.000000 -0.062500
v 1.000000 0.062500 -0.062500
v 1.000000 0.000000 -0.937500
v 1.000000 0.062500 -0.937500
v 2.000000 0.000000 -0.062500
v 2.000000 0.062500 -0.062500
v 2.000000 0.000000 -0.937500
v 2.000000 0.062500 -0.937500
vn -0.0000 -0.0000 -1.0000
vn 0.7071 0.7071 -0.0000
vn -0.0000 -0.0000 1.0000
vn -0.0000 1.0000 -0.0000
vn -0.0000 -1.0000 -0.0000
vn 1.0000 -0.0000 -0.0000
vn -1.0000 -0.0000 -0.0000
vt 0.354167 0.020833
vt 0.354167 0.104167
vt 0.604167 0.104167
vt 0.687500 0.020833
vt 0.625000 0.083333
vt 0.625000 0.104167
vt 0.541667 0.104167
vt 0.541667 0.083333
vt 0.354167 0.083333
vt 0.604167 0.083333
vt 0.125000 0.500000
vt 0.375000 0.500000
vt 0.375000 0.750000
vt 0.125000 0.750000
vt 0.583333 0.666667
vt 0.625000 0.666667
vt 0.625000 0.333333
vt 0.583333 0.333333
vt 0.625000 0.375000
vt 0.604167 0.333333
vt 0.604167 0.375000
vt 0.604167 0.666667
vt 0.416667 0.666667
vt 0.375000 0.666667
vt 0.375000 0.333333
vt 0.416667 0.333333
vt 0.395833 0.375000
vt 0.395833 0.333333
vt 0.375000 0.375000
vt 0.395833 0.666667
vt 0.937500 0.708333
vt 0.937500 0.666667
vt 0.687500 0.666667
vt 0.687500 0.708333
vt 0.291667 0.333333
vt 0.312500 0.333333
vt 0.312500 0.666667
vt 0.291667 0.666667
vt 0.354167 0.354167
vt 0.354167 0.333333
vt 0.645833 0.333333
vt 0.645833 0.354167
vt 0.020833 0.333333
vt 0.041667 0.333333
vt 0.041667 0.666667
vt 0.020833 0.666667
vt 0.354167 0.666667
vt 0.645833 0.666667
s 0
usemtl sluice
f 3/1/1 4/2/1 8/3/1 7/4/1
f 7/5/2 8/6/2 6/7/2 5/8/2
f 5/4/3 6/3/3 2/2/3 1/1/3
f 8/3/4 4/2/4 2/9/4 6/10/4
f 11/1/1 12/2/1 16/3/1 15/4/1
f 15/6/2 16/7/2 14/8/2 13/5/2
f 13/4/3 14/3/3 10/2/3 9/1/3
f 11/11/5 15/12/5 13/13/5 9/14/5
f 16/9/4 12/10/4 10/3/4 14/2/4
f 19/15/1 20/16/1 24/17/1 23/18/1
f 23/19/6 24/17/6 22/20/6 21/21/6
f 21/18/3 22/17/3 18/16/3 17/15/3
f 24/17/4 20/16/4 18/22/4 22/20/4
f 27/23/1 28/24/1 32/25/1 31/26/1
f 31/27/6 32/28/6 30/25/6 29/29/6
f 29/26/3 30/25/3 26/24/3 25/23/3
f 32/24/4 28/25/4 26/28/4 30/30/4
f 33/31/7 34/32/7 36/33/7 35/34/7
f 39/33/6 40/34/6 38/31/6 37/32/6
f 35/34/5 39/33/5 37/32/5 33/31/5
f 40/34/4 36/33/4 34/32/4 38/31/4
f 41/31/7 42/32/7 44/33/7 43/34/7
f 47/33/6 48/34/6 46/31/6 45/32/6
f 43/34/5 47/33/5 45/32/5 41/31/5
f 48/34/4 44/33/4 42/32/4 46/31/4
f 51/35/1 52/36/1 56/37/1 55/38/1
f 55/39/6 56/40/6 54/41/6 53/42/6
f 53/43/3 54/44/3 50/45/3 49/46/3
f 51/37/5 55/36/5 53/43/5 49/46/5
f 56/40/4 52/47/4 50/48/4 54/41/4
o Sediment
v 1.000000 0.125000 -0.187500
v 1.000000 0.125000 -0.812500
v 2.000000 0.062500 -0.187500
v 2.000000 0.125000 -0.187500
v 2.000000 0.062500 -0.812500
v 2.000000 0.125000 -0.812500
vn 1.0000 -0.0000 -0.0000
vn -0.0000 1.0000 -0.0000
vt 0.708333 0.041667
vt 0.708333 0.020833
vt 0.958333 0.020833
vt 0.958333 0.041667
vt 0.708333 0.354167
vt 0.958333 0.354167
s 0
usemtl sluice
f 61/49/8 62/50/8 60/51/8 59/52/8
f 62/50/9 58/53/9 57/54/9 60/51/9
